<?xml version="1.0" encoding="UTF-8"?><svg xmlns="http://www.w3.org/2000/svg" xmlns:xlink="http://www.w3.org/1999/xlink" fill-opacity="1" color-rendering="auto" color-interpolation="auto" text-rendering="auto" stroke="black" stroke-linecap="square" width="1175" stroke-miterlimit="10" shape-rendering="auto" stroke-opacity="1" fill="black" stroke-dasharray="none" font-weight="normal" stroke-width="1" height="213" font-family="'Dialog'" font-style="normal" stroke-linejoin="miter" font-size="12px" stroke-dashoffset="0" image-rendering="auto">
  <!--Generated by ySVG 2.5-->
  <defs id="genericDefs"/>
  <g>
    <defs id="defs1">
      <linearGradient x1="0" gradientUnits="userSpaceOnUse" x2="80" y1="-100" y2="-60" id="linearGradient1" spreadMethod="reflect">
        <stop stop-opacity="1" stop-color="rgb(232,238,247)" offset="0%"/>
        <stop stop-opacity="1" stop-color="rgb(183,201,227)" offset="100%"/>
      </linearGradient>
      <linearGradient x1="100" gradientUnits="userSpaceOnUse" x2="208.75" y1="-100" y2="-60" id="linearGradient2" spreadMethod="reflect">
        <stop stop-opacity="1" stop-color="rgb(232,238,247)" offset="0%"/>
        <stop stop-opacity="1" stop-color="rgb(183,201,227)" offset="100%"/>
      </linearGradient>
      <linearGradient x1="228.75" gradientUnits="userSpaceOnUse" x2="337.5" y1="-100" y2="-60" id="linearGradient3" spreadMethod="reflect">
        <stop stop-opacity="1" stop-color="rgb(232,238,247)" offset="0%"/>
        <stop stop-opacity="1" stop-color="rgb(183,201,227)" offset="100%"/>
      </linearGradient>
      <linearGradient x1="486.25" gradientUnits="userSpaceOnUse" x2="595" y1="-100" y2="-60" id="linearGradient4" spreadMethod="reflect">
        <stop stop-opacity="1" stop-color="rgb(232,238,247)" offset="0%"/>
        <stop stop-opacity="1" stop-color="rgb(183,201,227)" offset="100%"/>
      </linearGradient>
      <linearGradient x1="627.5781" gradientUnits="userSpaceOnUse" x2="736.3281" y1="-60" y2="-20" id="linearGradient5" spreadMethod="reflect">
        <stop stop-opacity="1" stop-color="rgb(232,238,247)" offset="0%"/>
        <stop stop-opacity="1" stop-color="rgb(183,201,227)" offset="100%"/>
      </linearGradient>
      <linearGradient x1="627.5781" gradientUnits="userSpaceOnUse" x2="736.3281" y1="-140" y2="-100" id="linearGradient6" spreadMethod="reflect">
        <stop stop-opacity="1" stop-color="rgb(232,238,247)" offset="0%"/>
        <stop stop-opacity="1" stop-color="rgb(183,201,227)" offset="100%"/>
      </linearGradient>
      <linearGradient x1="767.3281" gradientUnits="userSpaceOnUse" x2="876.0781" y1="-60" y2="-20" id="linearGradient7" spreadMethod="reflect">
        <stop stop-opacity="1" stop-color="rgb(232,238,247)" offset="0%"/>
        <stop stop-opacity="1" stop-color="rgb(183,201,227)" offset="100%"/>
      </linearGradient>
      <linearGradient x1="767.3281" gradientUnits="userSpaceOnUse" x2="876.0781" y1="-200" y2="-160" id="linearGradient8" spreadMethod="reflect">
        <stop stop-opacity="1" stop-color="rgb(232,238,247)" offset="0%"/>
        <stop stop-opacity="1" stop-color="rgb(183,201,227)" offset="100%"/>
      </linearGradient>
      <linearGradient x1="767.3281" gradientUnits="userSpaceOnUse" x2="876.0781" y1="-130" y2="-90" id="linearGradient9" spreadMethod="reflect">
        <stop stop-opacity="1" stop-color="rgb(232,238,247)" offset="0%"/>
        <stop stop-opacity="1" stop-color="rgb(183,201,227)" offset="100%"/>
      </linearGradient>
      <linearGradient x1="896.0781" gradientUnits="userSpaceOnUse" x2="1004.8281" y1="-130" y2="-90" id="linearGradient10" spreadMethod="reflect">
        <stop stop-opacity="1" stop-color="rgb(232,238,247)" offset="0%"/>
        <stop stop-opacity="1" stop-color="rgb(183,201,227)" offset="100%"/>
      </linearGradient>
      <linearGradient x1="1035.8281" gradientUnits="userSpaceOnUse" x2="1144.5781" y1="-130" y2="-90" id="linearGradient11" spreadMethod="reflect">
        <stop stop-opacity="1" stop-color="rgb(232,238,247)" offset="0%"/>
        <stop stop-opacity="1" stop-color="rgb(183,201,227)" offset="100%"/>
      </linearGradient>
      <linearGradient x1="357.5" gradientUnits="userSpaceOnUse" x2="466.25" y1="-100" y2="-60" id="linearGradient12" spreadMethod="reflect">
        <stop stop-opacity="1" stop-color="rgb(232,238,247)" offset="0%"/>
        <stop stop-opacity="1" stop-color="rgb(183,201,227)" offset="100%"/>
      </linearGradient>
      <clipPath clipPathUnits="userSpaceOnUse" id="clipPath1">
        <path d="M0 0 L1175 0 L1175 213 L0 213 L0 0 Z"/>
      </clipPath>
      <clipPath clipPathUnits="userSpaceOnUse" id="clipPath2">
        <path d="M-15 -215 L1160 -215 L1160 -2 L-15 -2 L-15 -215 Z"/>
      </clipPath>
    </defs>
    <g fill="white" text-rendering="geometricPrecision" shape-rendering="geometricPrecision" transform="translate(15,215)" stroke="white">
      <rect x="-15" width="1175" height="213" y="-215" clip-path="url(#clipPath2)" stroke="none"/>
    </g>
    <g fill="url(#linearGradient1)" text-rendering="geometricPrecision" shape-rendering="geometricPrecision" transform="matrix(1,0,0,1,15,215)" stroke="url(#linearGradient1)">
      <path d="M0 -100 L80 -100 L80 -60 L0 -60 Z" stroke="none" clip-path="url(#clipPath2)"/>
    </g>
    <g text-rendering="geometricPrecision" stroke-miterlimit="1.45" shape-rendering="geometricPrecision" transform="matrix(1,0,0,1,15,215)" stroke-linecap="butt">
      <path fill="none" d="M0 -100 L80 -100 L80 -60 L0 -60 Z" clip-path="url(#clipPath2)"/>
      <text x="25.3428" xml:space="preserve" y="-75.8457" clip-path="url(#clipPath2)" font-family="sans-serif" stroke="none">Start</text>
    </g>
    <g fill="url(#linearGradient2)" text-rendering="geometricPrecision" shape-rendering="geometricPrecision" transform="matrix(1,0,0,1,15,215)" stroke="url(#linearGradient2)">
      <path d="M100 -100 L208.75 -100 L208.75 -60 L100 -60 Z" stroke="none" clip-path="url(#clipPath2)"/>
    </g>
    <g text-rendering="geometricPrecision" stroke-miterlimit="1.45" shape-rendering="geometricPrecision" transform="matrix(1,0,0,1,15,215)" stroke-linecap="butt">
      <path fill="none" d="M100 -100 L208.75 -100 L208.75 -60 L100 -60 Z" clip-path="url(#clipPath2)"/>
      <text x="102.6748" xml:space="preserve" y="-82.8301" clip-path="url(#clipPath2)" font-family="sans-serif" stroke="none">Create database </text>
      <text x="119.4414" xml:space="preserve" y="-68.8613" clip-path="url(#clipPath2)" font-family="sans-serif" stroke="none">if not exists</text>
    </g>
    <g fill="url(#linearGradient3)" text-rendering="geometricPrecision" shape-rendering="geometricPrecision" transform="matrix(1,0,0,1,15,215)" stroke="url(#linearGradient3)">
      <path d="M228.75 -100 L337.5 -100 L337.5 -60 L228.75 -60 Z" stroke="none" clip-path="url(#clipPath2)"/>
    </g>
    <g text-rendering="geometricPrecision" stroke-miterlimit="1.45" shape-rendering="geometricPrecision" transform="matrix(1,0,0,1,15,215)" stroke-linecap="butt">
      <path fill="none" d="M228.75 -100 L337.5 -100 L337.5 -60 L228.75 -60 Z" clip-path="url(#clipPath2)"/>
      <text x="240.9199" xml:space="preserve" y="-82.8301" clip-path="url(#clipPath2)" font-family="sans-serif" stroke="none">Create tables </text>
      <text x="251.3174" xml:space="preserve" y="-68.8613" clip-path="url(#clipPath2)" font-family="sans-serif" stroke="none">if not exist</text>
    </g>
    <g fill="url(#linearGradient4)" text-rendering="geometricPrecision" shape-rendering="geometricPrecision" transform="matrix(1,0,0,1,15,215)" stroke="url(#linearGradient4)">
      <path d="M486.25 -100 L595 -100 L595 -60 L486.25 -60 Z" stroke="none" clip-path="url(#clipPath2)"/>
    </g>
    <g text-rendering="geometricPrecision" stroke-miterlimit="1.45" shape-rendering="geometricPrecision" transform="matrix(1,0,0,1,15,215)" stroke-linecap="butt">
      <path fill="none" d="M486.25 -100 L595 -100 L595 -60 L486.25 -60 Z" clip-path="url(#clipPath2)"/>
      <text x="509.6143" xml:space="preserve" y="-82.8301" clip-path="url(#clipPath2)" font-family="sans-serif" stroke="none">Get list of </text>
      <text x="509.875" xml:space="preserve" y="-68.8613" clip-path="url(#clipPath2)" font-family="sans-serif" stroke="none">properties</text>
    </g>
    <g fill="url(#linearGradient5)" text-rendering="geometricPrecision" shape-rendering="geometricPrecision" transform="matrix(1,0,0,1,15,215)" stroke="url(#linearGradient5)">
      <path d="M627.5781 -60 L736.3281 -60 L736.3281 -20 L627.5781 -20 Z" stroke="none" clip-path="url(#clipPath2)"/>
    </g>
    <g text-rendering="geometricPrecision" stroke-miterlimit="1.45" shape-rendering="geometricPrecision" transform="matrix(1,0,0,1,15,215)" stroke-linecap="butt">
      <path fill="none" d="M627.5781 -60 L736.3281 -60 L736.3281 -20 L627.5781 -20 Z" clip-path="url(#clipPath2)"/>
      <text x="639.0479" xml:space="preserve" y="-49.8145" clip-path="url(#clipPath2)" font-family="sans-serif" stroke="none">Get extended </text>
      <text x="628" xml:space="preserve" y="-35.8457" clip-path="url(#clipPath2)" font-family="sans-serif" stroke="none">information about</text>
      <text x="649.2959" xml:space="preserve" y="-21.877" clip-path="url(#clipPath2)" font-family="sans-serif" stroke="none"> properties</text>
    </g>
    <g fill="url(#linearGradient6)" text-rendering="geometricPrecision" shape-rendering="geometricPrecision" transform="matrix(1,0,0,1,15,215)" stroke="url(#linearGradient6)">
      <path d="M627.5781 -140 L736.3281 -140 L736.3281 -100 L627.5781 -100 Z" stroke="none" clip-path="url(#clipPath2)"/>
    </g>
    <g text-rendering="geometricPrecision" stroke-miterlimit="1.45" shape-rendering="geometricPrecision" transform="matrix(1,0,0,1,15,215)" stroke-linecap="butt">
      <path fill="none" d="M627.5781 -140 L736.3281 -140 L736.3281 -100 L627.5781 -100 Z" clip-path="url(#clipPath2)"/>
      <text x="638.6611" xml:space="preserve" y="-129.8145" clip-path="url(#clipPath2)" font-family="sans-serif" stroke="none">Extract plans, </text>
      <text x="648.792" xml:space="preserve" y="-115.8457" clip-path="url(#clipPath2)" font-family="sans-serif" stroke="none">prices and </text>
      <text x="638.2744" xml:space="preserve" y="-101.877" clip-path="url(#clipPath2)" font-family="sans-serif" stroke="none">community url</text>
    </g>
    <g fill="url(#linearGradient7)" text-rendering="geometricPrecision" shape-rendering="geometricPrecision" transform="matrix(1,0,0,1,15,215)" stroke="url(#linearGradient7)">
      <path d="M767.3281 -60 L876.0781 -60 L876.0781 -20 L767.3281 -20 Z" stroke="none" clip-path="url(#clipPath2)"/>
    </g>
    <g text-rendering="geometricPrecision" stroke-miterlimit="1.45" shape-rendering="geometricPrecision" transform="matrix(1,0,0,1,15,215)" stroke-linecap="butt">
      <path fill="none" d="M767.3281 -60 L876.0781 -60 L876.0781 -20 L767.3281 -20 Z" clip-path="url(#clipPath2)"/>
      <text x="784.4111" xml:space="preserve" y="-35.8457" clip-path="url(#clipPath2)" font-family="sans-serif" stroke="none">Upsert to db</text>
    </g>
    <g fill="url(#linearGradient8)" text-rendering="geometricPrecision" shape-rendering="geometricPrecision" transform="matrix(1,0,0,1,15,215)" stroke="url(#linearGradient8)">
      <path d="M767.3281 -200 L876.0781 -200 L876.0781 -160 L767.3281 -160 Z" stroke="none" clip-path="url(#clipPath2)"/>
    </g>
    <g text-rendering="geometricPrecision" stroke-miterlimit="1.45" shape-rendering="geometricPrecision" transform="matrix(1,0,0,1,15,215)" stroke-linecap="butt">
      <path fill="none" d="M767.3281 -200 L876.0781 -200 L876.0781 -160 L767.3281 -160 Z" clip-path="url(#clipPath2)"/>
      <text x="781.9707" xml:space="preserve" y="-182.8301" clip-path="url(#clipPath2)" font-family="sans-serif" stroke="none">Upsert plans </text>
      <text x="772.9941" xml:space="preserve" y="-168.8613" clip-path="url(#clipPath2)" font-family="sans-serif" stroke="none">and prices to db</text>
    </g>
    <g fill="url(#linearGradient9)" text-rendering="geometricPrecision" shape-rendering="geometricPrecision" transform="matrix(1,0,0,1,15,215)" stroke="url(#linearGradient9)">
      <path d="M767.3281 -130 L876.0781 -130 L876.0781 -90 L767.3281 -90 Z" stroke="none" clip-path="url(#clipPath2)"/>
    </g>
    <g text-rendering="geometricPrecision" stroke-miterlimit="1.45" shape-rendering="geometricPrecision" transform="matrix(1,0,0,1,15,215)" stroke-linecap="butt">
      <path fill="none" d="M767.3281 -130 L876.0781 -130 L876.0781 -90 L767.3281 -90 Z" clip-path="url(#clipPath2)"/>
      <text x="798.3066" xml:space="preserve" y="-112.8301" clip-path="url(#clipPath2)" font-family="sans-serif" stroke="none">Extract </text>
      <text x="774.708" xml:space="preserve" y="-98.8613" clip-path="url(#clipPath2)" font-family="sans-serif" stroke="none">community info</text>
    </g>
    <g fill="url(#linearGradient10)" text-rendering="geometricPrecision" shape-rendering="geometricPrecision" transform="matrix(1,0,0,1,15,215)" stroke="url(#linearGradient10)">
      <path d="M896.0781 -130 L1004.8281 -130 L1004.8281 -90 L896.0781 -90 Z" stroke="none" clip-path="url(#clipPath2)"/>
    </g>
    <g text-rendering="geometricPrecision" stroke-miterlimit="1.45" shape-rendering="geometricPrecision" transform="matrix(1,0,0,1,15,215)" stroke-linecap="butt">
      <path fill="none" d="M896.0781 -130 L1004.8281 -130 L1004.8281 -90 L896.0781 -90 Z" clip-path="url(#clipPath2)"/>
      <text x="913.1611" xml:space="preserve" y="-105.8457" clip-path="url(#clipPath2)" font-family="sans-serif" stroke="none">Upsert to db</text>
    </g>
    <g fill="url(#linearGradient11)" text-rendering="geometricPrecision" shape-rendering="geometricPrecision" transform="matrix(1,0,0,1,15,215)" stroke="url(#linearGradient11)">
      <path d="M1035.8281 -130 L1144.5781 -130 L1144.5781 -90 L1035.8281 -90 Z" stroke="none" clip-path="url(#clipPath2)"/>
    </g>
    <g text-rendering="geometricPrecision" stroke-miterlimit="1.45" shape-rendering="geometricPrecision" transform="matrix(1,0,0,1,15,215)" stroke-linecap="butt">
      <path fill="none" d="M1035.8281 -130 L1144.5781 -130 L1144.5781 -90 L1035.8281 -90 Z" clip-path="url(#clipPath2)"/>
      <text x="1072.6865" xml:space="preserve" y="-105.8457" clip-path="url(#clipPath2)" font-family="sans-serif" stroke="none">Finish</text>
    </g>
    <g fill="url(#linearGradient12)" text-rendering="geometricPrecision" shape-rendering="geometricPrecision" transform="matrix(1,0,0,1,15,215)" stroke="url(#linearGradient12)">
      <path d="M357.5 -100 L466.25 -100 L466.25 -60 L357.5 -60 Z" stroke="none" clip-path="url(#clipPath2)"/>
    </g>
    <g text-rendering="geometricPrecision" stroke-miterlimit="1.45" shape-rendering="geometricPrecision" transform="matrix(1,0,0,1,15,215)" stroke-linecap="butt">
      <path fill="none" d="M357.5 -100 L466.25 -100 L466.25 -60 L357.5 -60 Z" clip-path="url(#clipPath2)"/>
      <text x="369.1104" xml:space="preserve" y="-89.8145" clip-path="url(#clipPath2)" font-family="sans-serif" stroke="none">Get regions to</text>
      <text x="361.6514" xml:space="preserve" y="-75.8457" clip-path="url(#clipPath2)" font-family="sans-serif" stroke="none">check properties</text>
      <text x="374.29" xml:space="preserve" y="-61.877" clip-path="url(#clipPath2)" font-family="sans-serif" stroke="none"> in (from db)</text>
    </g>
    <g text-rendering="geometricPrecision" stroke-miterlimit="1.45" shape-rendering="geometricPrecision" transform="matrix(1,0,0,1,15,215)" stroke-linecap="butt">
      <path fill="none" d="M80 -80 L91.9609 -80" clip-path="url(#clipPath2)"/>
    </g>
    <g text-rendering="geometricPrecision" stroke-miterlimit="1.45" shape-rendering="geometricPrecision" transform="matrix(1,0,0,1,15,215)" stroke-linecap="butt">
      <path d="M99.9609 -80 L87.9609 -85 L90.9609 -80 L87.9609 -75 Z" stroke="none" clip-path="url(#clipPath2)"/>
      <path fill="none" d="M208.75 -80 L220.7109 -80" clip-path="url(#clipPath2)"/>
      <path d="M228.7109 -80 L216.7109 -85 L219.7109 -80 L216.7109 -75 Z" clip-path="url(#clipPath2)" stroke="none"/>
      <path fill="none" d="M595 -70 L610.5 -70 L610.5 -40 L619.5448 -40" clip-path="url(#clipPath2)"/>
      <path d="M627.5448 -40 L615.5448 -45 L618.5448 -40 L615.5448 -35 Z" clip-path="url(#clipPath2)" stroke="none"/>
      <path fill="none" d="M595 -90 L610.5 -90 L610.5 -120 L619.5448 -120" clip-path="url(#clipPath2)"/>
      <path d="M627.5448 -120 L615.5448 -125 L618.5448 -120 L615.5448 -115 Z" clip-path="url(#clipPath2)" stroke="none"/>
      <path fill="none" d="M736.3281 -40 L759.2979 -40" clip-path="url(#clipPath2)"/>
      <path d="M767.2979 -40 L755.2979 -45 L758.2979 -40 L755.2979 -35 Z" clip-path="url(#clipPath2)" stroke="none"/>
      <path fill="none" d="M736.3281 -130 L751.8281 -130 L751.8281 -180 L759.2979 -180" clip-path="url(#clipPath2)"/>
      <path d="M767.2979 -180 L755.2979 -185 L758.2979 -180 L755.2979 -175 Z" clip-path="url(#clipPath2)" stroke="none"/>
      <path fill="none" d="M736.3281 -110 L759.2979 -110" clip-path="url(#clipPath2)"/>
      <path d="M767.2979 -110 L755.2979 -115 L758.2979 -110 L755.2979 -105 Z" clip-path="url(#clipPath2)" stroke="none"/>
      <path fill="none" d="M876.0781 -110 L888.0391 -110" clip-path="url(#clipPath2)"/>
      <path d="M896.0391 -110 L884.0391 -115 L887.0391 -110 L884.0391 -105 Z" clip-path="url(#clipPath2)" stroke="none"/>
      <path fill="none" d="M1004.8281 -110 L1027.7979 -110" clip-path="url(#clipPath2)"/>
      <path d="M1035.7979 -110 L1023.7979 -115 L1026.7979 -110 L1023.7979 -105 Z" clip-path="url(#clipPath2)" stroke="none"/>
      <path fill="none" d="M876.0781 -180 L1020.3281 -180 L1020.3281 -123.3333 L1027.7979 -123.3333" clip-path="url(#clipPath2)"/>
      <path d="M1035.7979 -123.3333 L1023.7979 -128.3333 L1026.7979 -123.3333 L1023.7979 -118.3333 Z" clip-path="url(#clipPath2)" stroke="none"/>
      <path fill="none" d="M876.0781 -40 L1020.3281 -40 L1020.3281 -96.6667 L1027.7979 -96.6667" clip-path="url(#clipPath2)"/>
      <path d="M1035.7979 -96.6667 L1023.7979 -101.6667 L1026.7979 -96.6667 L1023.7979 -91.6667 Z" clip-path="url(#clipPath2)" stroke="none"/>
      <path fill="none" d="M337.5 -80 L349.4609 -80" clip-path="url(#clipPath2)"/>
      <path d="M357.4609 -80 L345.4609 -85 L348.4609 -80 L345.4609 -75 Z" clip-path="url(#clipPath2)" stroke="none"/>
      <path fill="none" d="M466.25 -80 L478.2109 -80" clip-path="url(#clipPath2)"/>
      <path d="M486.2109 -80 L474.2109 -85 L477.2109 -80 L474.2109 -75 Z" clip-path="url(#clipPath2)" stroke="none"/>
    </g>
  </g>
</svg>
